<svg viewBox="0 0 130 76" fill="none" xmlns="http://www.w3.org/2000/svg">
    <g filter="url(#filter0_d_6_10)">
        <path
            d="M65.6863 27.4188C66.0073 26.9693 66.6318 26.8653 67.0812 27.1863C67.5307 27.5073 67.6347 28.1318 67.3137 28.5812L65.6863 27.4188ZM10.617 60.4237C10.1068 60.2122 9.86472 59.6272 10.0763 59.117L13.5234 50.8033C13.7349 50.2931 14.32 50.051 14.8302 50.2626C15.3403 50.4741 15.5824 51.0592 15.3709 51.5693L12.3068 58.9593L19.6967 62.0234C20.2069 62.2349 20.449 62.82 20.2374 63.3302C20.0259 63.8403 19.4408 64.0824 18.9307 63.8709L10.617 60.4237ZM67.3137 28.5812C65.9214 30.5305 63.9953 31.7805 61.8427 32.7346C59.7121 33.6788 57.2557 34.374 54.7983 35.142C49.8272 36.6954 44.5644 38.6282 40.2593 43.6508L38.7407 42.3492C43.4356 36.8718 49.1728 34.8046 54.2017 33.233C56.7443 32.4385 59.0379 31.79 61.0323 30.9061C63.0047 30.032 64.5786 28.9695 65.6863 27.4188L67.3137 28.5812ZM40.2593 43.6508C35.6853 48.9871 32.0812 51.7034 27.7543 53.8346C25.6137 54.8889 23.3081 55.7943 20.6603 56.8018C18.0043 57.8125 14.9905 58.931 11.3824 60.424L10.6176 58.576C14.2595 57.069 17.3082 55.9375 19.949 54.9326C22.5982 53.9245 24.8238 53.0486 26.8707 52.0404C30.9188 50.0466 34.3147 47.5129 38.7407 42.3492L40.2593 43.6508Z"
            fill="white" fill-opacity="0.87" />
        <path
            d="M40.7443 19.2557C40.053 19.2557 39.4257 19.1255 38.8622 18.8651C38.2988 18.5999 37.8513 18.2188 37.5199 17.7216C37.1884 17.2197 37.0227 16.6136 37.0227 15.9034C37.0227 15.2784 37.1458 14.7718 37.392 14.3835C37.6383 13.9905 37.9673 13.6828 38.3793 13.4602C38.7912 13.2377 39.2457 13.072 39.7429 12.9631C40.2448 12.8494 40.7491 12.7595 41.2557 12.6932C41.9186 12.608 42.456 12.544 42.8679 12.5014C43.2846 12.4541 43.5876 12.3759 43.777 12.267C43.9711 12.1581 44.0682 11.9687 44.0682 11.6989V11.642C44.0682 10.9413 43.8764 10.3968 43.4929 10.0085C43.1141 9.62027 42.5388 9.42614 41.767 9.42614C40.9669 9.42614 40.3395 9.60133 39.8849 9.9517C39.4304 10.3021 39.1108 10.6761 38.9261 11.0739L37.3352 10.5057C37.6193 9.8428 37.9981 9.3267 38.4716 8.95739C38.9498 8.58333 39.4706 8.32292 40.0341 8.17614C40.6023 8.02462 41.161 7.94886 41.7102 7.94886C42.0606 7.94886 42.4631 7.99148 42.9176 8.0767C43.3769 8.1572 43.8196 8.32528 44.2457 8.58097C44.6766 8.83665 45.0341 9.22254 45.3182 9.73864C45.6023 10.2547 45.7443 10.946 45.7443 11.8125V19H44.0682V17.5227H43.983C43.8693 17.7595 43.6799 18.0128 43.4148 18.2827C43.1496 18.5526 42.7969 18.7822 42.3565 18.9716C41.9162 19.161 41.3788 19.2557 40.7443 19.2557ZM41 17.75C41.6629 17.75 42.2216 17.6198 42.6761 17.3594C43.1354 17.099 43.4811 16.7628 43.7131 16.3509C43.9498 15.9389 44.0682 15.5057 44.0682 15.0511V13.517C43.9972 13.6023 43.8409 13.6804 43.5994 13.7514C43.3627 13.8177 43.0881 13.8769 42.7756 13.929C42.4678 13.9763 42.1671 14.0189 41.8736 14.0568C41.5848 14.09 41.3504 14.1184 41.1705 14.142C40.7348 14.1989 40.3277 14.2912 39.9489 14.419C39.5748 14.5421 39.2718 14.7292 39.0398 14.9801C38.8125 15.2263 38.6989 15.5625 38.6989 15.9886C38.6989 16.571 38.9143 17.0114 39.3452 17.3097C39.7808 17.6032 40.3324 17.75 41 17.75ZM58.8604 19.2273C57.8377 19.2273 56.957 18.9858 56.2184 18.5028C55.4798 18.0199 54.9116 17.3546 54.5138 16.5071C54.1161 15.6596 53.9173 14.6913 53.9173 13.6023C53.9173 12.4943 54.1209 11.5166 54.5281 10.669C54.94 9.81676 55.5129 9.15152 56.2468 8.6733C56.9854 8.19034 57.8472 7.94886 58.832 7.94886C59.5991 7.94886 60.2904 8.09091 60.9059 8.375C61.5214 8.65909 62.0257 9.05682 62.4187 9.56818C62.8117 10.0795 63.0555 10.6761 63.1502 11.358H61.4741C61.3462 10.8608 61.0621 10.4205 60.6218 10.0369C60.1862 9.64867 59.5991 9.45455 58.8604 9.45455C58.207 9.45455 57.6341 9.625 57.1417 9.96591C56.654 10.3021 56.2728 10.7779 55.9982 11.3935C55.7283 12.0043 55.5934 12.7216 55.5934 13.5455C55.5934 14.3883 55.726 15.1222 55.9911 15.7472C56.261 16.3722 56.6398 16.8575 57.1275 17.2031C57.6199 17.5488 58.1976 17.7216 58.8604 17.7216C59.296 17.7216 59.6914 17.6458 60.0465 17.4943C60.4016 17.3428 60.7023 17.125 60.9485 16.8409C61.1947 16.5568 61.3699 16.2159 61.4741 15.8182H63.1502C63.0555 16.4621 62.8211 17.0421 62.4471 17.5582C62.0778 18.0696 61.5877 18.4768 60.9769 18.7798C60.3709 19.0781 59.6654 19.2273 58.8604 19.2273ZM70.0323 19.2273C69.0475 19.2273 68.1834 18.9929 67.44 18.5241C66.7013 18.0554 66.1237 17.3996 65.707 16.5568C65.2951 15.714 65.0891 14.7292 65.0891 13.6023C65.0891 12.4659 65.2951 11.474 65.707 10.6264C66.1237 9.77888 66.7013 9.12074 67.44 8.65199C68.1834 8.18324 69.0475 7.94886 70.0323 7.94886C71.0172 7.94886 71.8789 8.18324 72.6175 8.65199C73.3609 9.12074 73.9386 9.77888 74.3505 10.6264C74.7672 11.474 74.9755 12.4659 74.9755 13.6023C74.9755 14.7292 74.7672 15.714 74.3505 16.5568C73.9386 17.3996 73.3609 18.0554 72.6175 18.5241C71.8789 18.9929 71.0172 19.2273 70.0323 19.2273ZM70.0323 17.7216C70.7804 17.7216 71.396 17.5298 71.8789 17.1463C72.3619 16.7628 72.7193 16.2585 72.9513 15.6335C73.1834 15.0085 73.2994 14.3314 73.2994 13.6023C73.2994 12.8731 73.1834 12.1937 72.9513 11.5639C72.7193 10.9342 72.3619 10.4252 71.8789 10.0369C71.396 9.64867 70.7804 9.45455 70.0323 9.45455C69.2842 9.45455 68.6687 9.64867 68.1857 10.0369C67.7028 10.4252 67.3453 10.9342 67.1133 11.5639C66.8813 12.1937 66.7653 12.8731 66.7653 13.6023C66.7653 14.3314 66.8813 15.0085 67.1133 15.6335C67.3453 16.2585 67.7028 16.7628 68.1857 17.1463C68.6687 17.5298 69.2842 17.7216 70.0323 17.7216ZM84.4091 14.5398V8.09091H86.0852V19H84.4091V17.1534H84.2955C84.0398 17.7074 83.642 18.1785 83.1023 18.5668C82.5625 18.9503 81.8807 19.142 81.0568 19.142C80.375 19.142 79.7689 18.9929 79.2386 18.6946C78.7083 18.3916 78.2917 17.937 77.9886 17.331C77.6856 16.7202 77.5341 15.9508 77.5341 15.0227V8.09091H79.2102V14.9091C79.2102 15.7045 79.4328 16.339 79.8778 16.8125C80.3277 17.286 80.9006 17.5227 81.5966 17.5227C82.0133 17.5227 82.437 17.4162 82.8679 17.2031C83.3035 16.9901 83.6681 16.6634 83.9616 16.223C84.2599 15.7827 84.4091 15.2216 84.4091 14.5398ZM93.587 19.2273C92.5643 19.2273 91.6836 18.9858 90.945 18.5028C90.2063 18.0199 89.6381 17.3546 89.2404 16.5071C88.8427 15.6596 88.6438 14.6913 88.6438 13.6023C88.6438 12.4943 88.8474 11.5166 89.2546 10.669C89.6665 9.81676 90.2395 9.15152 90.9734 8.6733C91.712 8.19034 92.5737 7.94886 93.5586 7.94886C94.3256 7.94886 95.0169 8.09091 95.6325 8.375C96.248 8.65909 96.7522 9.05682 97.1452 9.56818C97.5382 10.0795 97.7821 10.6761 97.8768 11.358H96.2006C96.0728 10.8608 95.7887 10.4205 95.3484 10.0369C94.9128 9.64867 94.3256 9.45455 93.587 9.45455C92.9336 9.45455 92.3607 9.625 91.8683 9.96591C91.3806 10.3021 90.9994 10.7779 90.7248 11.3935C90.4549 12.0043 90.32 12.7216 90.32 13.5455C90.32 14.3883 90.4525 15.1222 90.7177 15.7472C90.9876 16.3722 91.3664 16.8575 91.854 17.2031C92.3465 17.5488 92.9241 17.7216 93.587 17.7216C94.0226 17.7216 94.418 17.6458 94.7731 17.4943C95.1282 17.3428 95.4289 17.125 95.6751 16.8409C95.9213 16.5568 96.0965 16.2159 96.2006 15.8182H97.8768C97.7821 16.4621 97.5477 17.0421 97.1737 17.5582C96.8043 18.0696 96.3143 18.4768 95.7035 18.7798C95.0974 19.0781 94.3919 19.2273 93.587 19.2273ZM102.003 12.4375V19H100.327V4.45455H102.003V9.79545H102.145C102.401 9.23201 102.784 8.78456 103.296 8.45312C103.812 8.11695 104.498 7.94886 105.355 7.94886C106.099 7.94886 106.75 8.09801 107.309 8.39631C107.867 8.68987 108.301 9.14205 108.608 9.75284C108.921 10.3589 109.077 11.1307 109.077 12.0682V19H107.401V12.1818C107.401 11.3153 107.176 10.6454 106.726 10.1719C106.281 9.69366 105.663 9.45455 104.873 9.45455C104.323 9.45455 103.831 9.57055 103.395 9.80256C102.964 10.0346 102.623 10.3731 102.373 10.8182C102.126 11.2633 102.003 11.803 102.003 12.4375Z"
            fill="white" fill-opacity="0.87" />
        <path
            d="M88.3722 34.1278C88.0265 34.1278 87.7128 34.0627 87.4311 33.9325C87.1494 33.8 86.9257 33.6094 86.7599 33.3608C86.5942 33.1098 86.5114 32.8068 86.5114 32.4517C86.5114 32.1392 86.5729 31.8859 86.696 31.6918C86.8191 31.4953 86.9837 31.3414 87.1896 31.2301C87.3956 31.1188 87.6229 31.036 87.8714 30.9815C88.1224 30.9247 88.3745 30.8797 88.6278 30.8466C88.9593 30.804 89.228 30.772 89.4339 30.7507C89.6423 30.727 89.7938 30.688 89.8885 30.6335C89.9856 30.5791 90.0341 30.4844 90.0341 30.3494V30.321C90.0341 29.9706 89.9382 29.6984 89.7464 29.5043C89.5571 29.3101 89.2694 29.2131 88.8835 29.2131C88.4834 29.2131 88.1697 29.3007 87.9425 29.4759C87.7152 29.651 87.5554 29.8381 87.4631 30.0369L86.6676 29.7528C86.8097 29.4214 86.9991 29.1634 87.2358 28.9787C87.4749 28.7917 87.7353 28.6615 88.017 28.5881C88.3011 28.5123 88.5805 28.4744 88.8551 28.4744C89.0303 28.4744 89.2315 28.4957 89.4588 28.5384C89.6884 28.5786 89.9098 28.6626 90.1229 28.7905C90.3383 28.9183 90.517 29.1113 90.6591 29.3693C90.8011 29.6274 90.8722 29.973 90.8722 30.4062V34H90.0341V33.2614H89.9915C89.9347 33.3797 89.84 33.5064 89.7074 33.6413C89.5748 33.7763 89.3984 33.8911 89.1783 33.9858C88.9581 34.0805 88.6894 34.1278 88.3722 34.1278ZM88.5 33.375C88.8314 33.375 89.1108 33.3099 89.3381 33.1797C89.5677 33.0495 89.7405 32.8814 89.8565 32.6754C89.9749 32.4695 90.0341 32.2528 90.0341 32.0256V31.2585C89.9986 31.3011 89.9205 31.3402 89.7997 31.3757C89.6813 31.4089 89.544 31.4384 89.3878 31.4645C89.2339 31.4882 89.0836 31.5095 88.9368 31.5284C88.7924 31.545 88.6752 31.5592 88.5852 31.571C88.3674 31.5994 88.1638 31.6456 87.9744 31.7095C87.7874 31.7711 87.6359 31.8646 87.5199 31.9901C87.4063 32.1132 87.3494 32.2812 87.3494 32.4943C87.3494 32.7855 87.4571 33.0057 87.6726 33.1548C87.8904 33.3016 88.1662 33.375 88.5 33.375ZM94.774 28.5455V29.2557H91.9473V28.5455H94.774ZM92.7711 27.2386H93.6092V32.4375C93.6092 32.6742 93.6435 32.8518 93.7122 32.9702C93.7832 33.0862 93.8732 33.1643 93.9821 33.2045C94.0933 33.2424 94.2105 33.2614 94.3336 33.2614C94.426 33.2614 94.5017 33.2566 94.5609 33.2472C94.6201 33.2353 94.6674 33.2259 94.7029 33.2188L94.8734 33.9716C94.8166 33.9929 94.7373 34.0142 94.6355 34.0355C94.5337 34.0592 94.4047 34.071 94.2484 34.071C94.0117 34.071 93.7797 34.0201 93.5524 33.9183C93.3275 33.8165 93.1404 33.6615 92.9913 33.4531C92.8445 33.2448 92.7711 32.982 92.7711 32.6648V27.2386ZM99.6852 26.7273V34H98.8471V26.7273H99.6852ZM103.507 34.1136C102.982 34.1136 102.528 33.9976 102.147 33.7656C101.768 33.5312 101.476 33.2045 101.27 32.7855C101.066 32.3641 100.964 31.8741 100.964 31.3153C100.964 30.7566 101.066 30.2642 101.27 29.8381C101.476 29.4096 101.762 29.0758 102.129 28.8366C102.499 28.5952 102.929 28.4744 103.422 28.4744C103.706 28.4744 103.987 28.5218 104.263 28.6165C104.54 28.7112 104.793 28.8651 105.02 29.0781C105.247 29.2888 105.428 29.5682 105.563 29.9162C105.698 30.2642 105.766 30.6927 105.766 31.2017V31.5568H101.561V30.8324H104.913C104.913 30.5246 104.852 30.25 104.729 30.0085C104.608 29.767 104.435 29.5765 104.21 29.4368C103.988 29.2971 103.725 29.2273 103.422 29.2273C103.088 29.2273 102.799 29.3101 102.555 29.4759C102.314 29.6392 102.128 29.8523 101.998 30.1151C101.868 30.3778 101.803 30.6596 101.803 30.9602V31.4432C101.803 31.8551 101.874 32.2043 102.016 32.4908C102.16 32.7749 102.36 32.9915 102.616 33.1406C102.871 33.2874 103.169 33.3608 103.507 33.3608C103.727 33.3608 103.926 33.33 104.104 33.2685C104.284 33.2045 104.439 33.1098 104.569 32.9844C104.699 32.8565 104.8 32.6979 104.871 32.5085L105.68 32.7358C105.595 33.0104 105.452 33.2519 105.251 33.4602C105.049 33.6662 104.801 33.8272 104.505 33.9432C104.209 34.0568 103.876 34.1136 103.507 34.1136ZM108.646 34.1278C108.3 34.1278 107.986 34.0627 107.705 33.9325C107.423 33.8 107.199 33.6094 107.033 33.3608C106.868 33.1098 106.785 32.8068 106.785 32.4517C106.785 32.1392 106.846 31.8859 106.969 31.6918C107.093 31.4953 107.257 31.3414 107.463 31.2301C107.669 31.1188 107.896 31.036 108.145 30.9815C108.396 30.9247 108.648 30.8797 108.901 30.8466C109.233 30.804 109.501 30.772 109.707 30.7507C109.916 30.727 110.067 30.688 110.162 30.6335C110.259 30.5791 110.308 30.4844 110.308 30.3494V30.321C110.308 29.9706 110.212 29.6984 110.02 29.5043C109.83 29.3101 109.543 29.2131 109.157 29.2131C108.757 29.2131 108.443 29.3007 108.216 29.4759C107.989 29.651 107.829 29.8381 107.737 30.0369L106.941 29.7528C107.083 29.4214 107.272 29.1634 107.509 28.9787C107.748 28.7917 108.009 28.6615 108.29 28.5881C108.575 28.5123 108.854 28.4744 109.129 28.4744C109.304 28.4744 109.505 28.4957 109.732 28.5384C109.962 28.5786 110.183 28.6626 110.396 28.7905C110.612 28.9183 110.79 29.1113 110.933 29.3693C111.075 29.6274 111.146 29.973 111.146 30.4062V34H110.308V33.2614H110.265C110.208 33.3797 110.113 33.5064 109.981 33.6413C109.848 33.7763 109.672 33.8911 109.452 33.9858C109.232 34.0805 108.963 34.1278 108.646 34.1278ZM108.773 33.375C109.105 33.375 109.384 33.3099 109.612 33.1797C109.841 33.0495 110.014 32.8814 110.13 32.6754C110.248 32.4695 110.308 32.2528 110.308 32.0256V31.2585C110.272 31.3011 110.194 31.3402 110.073 31.3757C109.955 31.4089 109.817 31.4384 109.661 31.4645C109.507 31.4882 109.357 31.5095 109.21 31.5284C109.066 31.545 108.949 31.5592 108.859 31.571C108.641 31.5994 108.437 31.6456 108.248 31.7095C108.061 31.7711 107.909 31.8646 107.793 31.9901C107.68 32.1132 107.623 32.2812 107.623 32.4943C107.623 32.7855 107.731 33.0057 107.946 33.1548C108.164 33.3016 108.44 33.375 108.773 33.375ZM116.539 29.767L115.786 29.9801C115.739 29.8546 115.669 29.7327 115.577 29.6143C115.487 29.4936 115.363 29.3942 115.207 29.3161C115.051 29.2379 114.851 29.1989 114.607 29.1989C114.273 29.1989 113.995 29.2758 113.773 29.4297C113.552 29.5812 113.442 29.7741 113.442 30.0085C113.442 30.2169 113.518 30.3814 113.67 30.5021C113.821 30.6229 114.058 30.7235 114.38 30.804L115.189 31.0028C115.677 31.1212 116.041 31.3023 116.28 31.5462C116.519 31.7876 116.638 32.099 116.638 32.4801C116.638 32.7926 116.548 33.072 116.368 33.3182C116.191 33.5644 115.942 33.7585 115.623 33.9006C115.303 34.0426 114.931 34.1136 114.508 34.1136C113.951 34.1136 113.491 33.9929 113.126 33.7514C112.762 33.5099 112.531 33.1572 112.434 32.6932L113.229 32.4943C113.305 32.7879 113.448 33.008 113.659 33.1548C113.872 33.3016 114.15 33.375 114.493 33.375C114.884 33.375 115.194 33.2921 115.424 33.1264C115.656 32.9583 115.772 32.7571 115.772 32.5227C115.772 32.3333 115.706 32.1747 115.573 32.0469C115.44 31.9167 115.237 31.8196 114.962 31.7557L114.053 31.5426C113.554 31.4242 113.187 31.2408 112.952 30.9922C112.72 30.7412 112.604 30.4276 112.604 30.0511C112.604 29.7434 112.691 29.4711 112.863 29.2344C113.039 28.9976 113.277 28.8118 113.577 28.6768C113.88 28.5419 114.224 28.4744 114.607 28.4744C115.147 28.4744 115.571 28.5928 115.878 28.8295C116.189 29.0663 116.409 29.3788 116.539 29.767ZM120.272 28.5455V29.2557H117.445V28.5455H120.272ZM118.269 27.2386H119.107V32.4375C119.107 32.6742 119.142 32.8518 119.21 32.9702C119.281 33.0862 119.371 33.1643 119.48 33.2045C119.591 33.2424 119.709 33.2614 119.832 33.2614C119.924 33.2614 120 33.2566 120.059 33.2472C120.118 33.2353 120.165 33.2259 120.201 33.2188L120.371 33.9716C120.315 33.9929 120.235 34.0142 120.134 34.0355C120.032 34.0592 119.903 34.071 119.746 34.071C119.51 34.071 119.278 34.0201 119.05 33.9183C118.826 33.8165 118.638 33.6615 118.489 33.4531C118.343 33.2448 118.269 32.982 118.269 32.6648V27.2386ZM122.143 34.0568C121.968 34.0568 121.818 33.9941 121.692 33.8686C121.567 33.7431 121.504 33.5928 121.504 33.4176C121.504 33.2424 121.567 33.0921 121.692 32.9666C121.818 32.8411 121.968 32.7784 122.143 32.7784C122.319 32.7784 122.469 32.8411 122.594 32.9666C122.72 33.0921 122.783 33.2424 122.783 33.4176C122.783 33.5336 122.753 33.6402 122.694 33.7372C122.637 33.8343 122.56 33.9124 122.463 33.9716C122.368 34.0284 122.262 34.0568 122.143 34.0568ZM124.897 34.0568C124.722 34.0568 124.572 33.9941 124.446 33.8686C124.321 33.7431 124.258 33.5928 124.258 33.4176C124.258 33.2424 124.321 33.0921 124.446 32.9666C124.572 32.8411 124.722 32.7784 124.897 32.7784C125.073 32.7784 125.223 32.8411 125.348 32.9666C125.474 33.0921 125.537 33.2424 125.537 33.4176C125.537 33.5336 125.507 33.6402 125.448 33.7372C125.391 33.8343 125.314 33.9124 125.217 33.9716C125.122 34.0284 125.016 34.0568 124.897 34.0568ZM127.651 34.0568C127.476 34.0568 127.326 33.9941 127.2 33.8686C127.075 33.7431 127.012 33.5928 127.012 33.4176C127.012 33.2424 127.075 33.0921 127.2 32.9666C127.326 32.8411 127.476 32.7784 127.651 32.7784C127.826 32.7784 127.977 32.8411 128.102 32.9666C128.228 33.0921 128.29 33.2424 128.29 33.4176C128.29 33.5336 128.261 33.6402 128.202 33.7372C128.145 33.8343 128.068 33.9124 127.971 33.9716C127.876 34.0284 127.77 34.0568 127.651 34.0568Z"
            fill="white" fill-opacity="0.87" />
    </g>
    <defs>
        <filter id="filter0_d_6_10" x="-0.000244141" y="4.45459" width="128.291" height="71.4929"
            filterUnits="userSpaceOnUse" color-interpolation-filters="sRGB">
            <feFlood flood-opacity="0" result="BackgroundImageFix" />
            <feColorMatrix in="SourceAlpha" type="matrix"
                values="0 0 0 0 0 0 0 0 0 0 0 0 0 0 0 0 0 0 127 0" result="hardAlpha" />
            <feOffset dx="-6" dy="8" />
            <feGaussianBlur stdDeviation="2" />
            <feComposite in2="hardAlpha" operator="out" />
            <feColorMatrix type="matrix" values="0 0 0 0 0 0 0 0 0 0 0 0 0 0 0 0 0 0 0.15 0" />
            <feBlend mode="normal" in2="BackgroundImageFix" result="effect1_dropShadow_6_10" />
            <feBlend mode="normal" in="SourceGraphic" in2="effect1_dropShadow_6_10" result="shape" />
        </filter>
    </defs>
</svg>