<svg viewBox="0 0 144 89" fill="none" xmlns="http://www.w3.org/2000/svg">
    <g filter="url(#filter0_d_5_9)">
        <path
            d="M61.1508 29.2407C60.7314 28.8813 60.1001 28.9299 59.7407 29.3492C59.3813 29.7686 59.4299 30.3999 59.8492 30.7593L61.1508 29.2407ZM129.727 76.462C130.258 76.6128 130.811 76.3044 130.962 75.7732L133.42 67.1154C133.571 66.5842 133.263 66.0312 132.732 65.8803C132.2 65.7295 131.647 66.0378 131.496 66.5691L129.311 74.2649L121.615 72.0796C121.084 71.9287 120.531 72.2371 120.38 72.7684C120.229 73.2997 120.538 73.8527 121.069 74.0035L129.727 76.462ZM59.8492 30.7593C60.6292 31.4278 61.4633 32.5061 62.5946 33.9552C63.6978 35.3685 65.0252 37.0519 66.7256 38.7755C70.1428 42.2394 75.0415 45.8419 82.7341 47.964L83.2659 46.036C75.9585 44.0202 71.3572 40.6225 68.1494 37.3709C66.5373 35.7367 65.271 34.1335 64.1711 32.7245C63.0992 31.3514 62.1208 30.0721 61.1508 29.2407L59.8492 30.7593ZM82.7341 47.964C86.524 49.0095 90.499 49.6968 94.4275 50.5213C98.3848 51.3518 102.359 52.3324 106.303 53.9749C114.145 57.2406 121.979 63.1698 129.127 75.9871L130.873 75.0129C123.522 61.8303 115.356 55.5785 107.072 52.1287C102.954 50.4134 98.8341 49.4026 94.8383 48.5639C90.8136 47.7192 86.976 47.0595 83.2659 46.036L82.7341 47.964Z"
            fill="white" fill-opacity="0.87" />
        <path
            d="M1.53409 19V8.09091H3.15341V9.79545H3.29545C3.52273 9.21307 3.88968 8.76089 4.39631 8.43892C4.90294 8.11222 5.51136 7.94886 6.22159 7.94886C6.94129 7.94886 7.54025 8.11222 8.01847 8.43892C8.50142 8.76089 8.87784 9.21307 9.14773 9.79545H9.26136C9.54072 9.23201 9.95975 8.78456 10.5185 8.45312C11.0772 8.11695 11.7472 7.94886 12.5284 7.94886C13.5038 7.94886 14.3016 8.25426 14.9219 8.86506C15.5421 9.47112 15.8523 10.4157 15.8523 11.6989V19H14.1761V11.6989C14.1761 10.8939 13.956 10.3187 13.5156 9.97301C13.0753 9.62737 12.5568 9.45455 11.9602 9.45455C11.1932 9.45455 10.599 9.68655 10.1776 10.1506C9.75616 10.6098 9.54545 11.1922 9.54545 11.8977V19H7.84091V11.5284C7.84091 10.9081 7.63968 10.4086 7.23722 10.0298C6.83475 9.64631 6.31629 9.45455 5.68182 9.45455C5.24621 9.45455 4.83902 9.57055 4.46023 9.80256C4.08617 10.0346 3.78314 10.3565 3.55114 10.7685C3.32386 11.1757 3.21023 11.6468 3.21023 12.1818V19H1.53409ZM19.6058 23.0909C19.3217 23.0909 19.0684 23.0672 18.8459 23.0199C18.6233 22.9773 18.4695 22.9347 18.3842 22.892L18.8104 21.4148C19.2176 21.5189 19.5774 21.5568 19.8899 21.5284C20.2024 21.5 20.4794 21.3603 20.7209 21.1094C20.9671 20.8632 21.192 20.4631 21.3956 19.9091L21.7081 19.0568L17.674 8.09091H19.4922L22.5036 16.7841H22.6172L25.6286 8.09091H27.4467L22.8161 20.5909C22.6077 21.1544 22.3497 21.6207 22.0419 21.9901C21.7341 22.3641 21.3767 22.6411 20.9695 22.821C20.567 23.0009 20.1125 23.0909 19.6058 23.0909ZM36.9602 4.45455V19H35.2841V4.45455H36.9602ZM40.0302 19V8.09091H41.7063V19H40.0302ZM40.8825 6.27273C40.5558 6.27273 40.274 6.16146 40.0373 5.93892C39.8053 5.71638 39.6893 5.44886 39.6893 5.13636C39.6893 4.82386 39.8053 4.55634 40.0373 4.33381C40.274 4.11127 40.5558 4 40.8825 4C41.2092 4 41.4885 4.11127 41.7205 4.33381C41.9573 4.55634 42.0756 4.82386 42.0756 5.13636C42.0756 5.44886 41.9573 5.71638 41.7205 5.93892C41.4885 6.16146 41.2092 6.27273 40.8825 6.27273ZM46.4524 12.4375V19H44.7763V8.09091H46.3956V9.79545H46.5376C46.7933 9.24148 47.1816 8.7964 47.7024 8.46023C48.2232 8.11932 48.8956 7.94886 49.7195 7.94886C50.4581 7.94886 51.1044 8.10038 51.6584 8.40341C52.2124 8.7017 52.6432 9.15625 52.951 9.76705C53.2588 10.3731 53.4126 11.1402 53.4126 12.0682V19H51.7365V12.1818C51.7365 11.3248 51.514 10.6572 51.0689 10.179C50.6238 9.69602 50.013 9.45455 49.2365 9.45455C48.7015 9.45455 48.2232 9.57055 47.8018 9.80256C47.3852 10.0346 47.0561 10.3731 46.8146 10.8182C46.5732 11.2633 46.4524 11.803 46.4524 12.4375ZM58.038 15.0227L58.0096 12.9489H58.3505L63.1232 8.09091H65.1971L60.1119 13.233H59.9698L58.038 15.0227ZM56.4755 19V4.45455H58.1516V19H56.4755ZM63.4073 19L59.146 13.6023L60.3391 12.4375L65.538 19H63.4073ZM75.0817 10.5341L73.576 10.9602C73.4813 10.7093 73.3416 10.4654 73.157 10.2287C72.977 9.98722 72.7308 9.78835 72.4183 9.6321C72.1058 9.47585 71.7057 9.39773 71.218 9.39773C70.5504 9.39773 69.9941 9.55161 69.549 9.85938C69.1087 10.1624 68.8885 10.5483 68.8885 11.017C68.8885 11.4337 69.04 11.7628 69.343 12.0043C69.6461 12.2457 70.1196 12.447 70.7635 12.608L72.3828 13.0057C73.3582 13.2424 74.085 13.6046 74.5632 14.0923C75.0414 14.5753 75.2805 15.1979 75.2805 15.9602C75.2805 16.5852 75.1006 17.1439 74.7408 17.6364C74.3857 18.1288 73.8885 18.517 73.2493 18.8011C72.6101 19.0852 71.8667 19.2273 71.0192 19.2273C69.9065 19.2273 68.9856 18.9858 68.2564 18.5028C67.5272 18.0199 67.0656 17.3144 66.8714 16.3864L68.4624 15.9886C68.6139 16.5758 68.9003 17.0161 69.3217 17.3097C69.7479 17.6032 70.3042 17.75 70.9908 17.75C71.772 17.75 72.3923 17.5843 72.8516 17.2528C73.3156 16.9167 73.5476 16.5142 73.5476 16.0455C73.5476 15.6667 73.415 15.3494 73.1499 15.0938C72.8847 14.8333 72.4775 14.6392 71.9283 14.5114L70.1101 14.0852C69.111 13.8485 68.3771 13.4815 67.9084 12.9844C67.4444 12.4825 67.2124 11.8551 67.2124 11.1023C67.2124 10.4867 67.3852 9.94223 67.7308 9.46875C68.0812 8.99527 68.5571 8.62358 69.1584 8.35369C69.7644 8.08381 70.451 7.94886 71.218 7.94886C72.2976 7.94886 73.1451 8.18561 73.7607 8.65909C74.3809 9.13258 74.8213 9.75758 75.0817 10.5341Z"
            fill="white" fill-opacity="0.87" />
    </g>
    <defs>
        <filter id="filter0_d_5_9" x="1.53418" y="4" width="141.925" height="84.5002"
            filterUnits="userSpaceOnUse" color-interpolation-filters="sRGB">
            <feFlood flood-opacity="0" result="BackgroundImageFix" />
            <feColorMatrix in="SourceAlpha" type="matrix"
                values="0 0 0 0 0 0 0 0 0 0 0 0 0 0 0 0 0 0 127 0" result="hardAlpha" />
            <feOffset dx="6" dy="8" />
            <feGaussianBlur stdDeviation="2" />
            <feComposite in2="hardAlpha" operator="out" />
            <feColorMatrix type="matrix" values="0 0 0 0 0 0 0 0 0 0 0 0 0 0 0 0 0 0 0.15 0" />
            <feBlend mode="normal" in2="BackgroundImageFix" result="effect1_dropShadow_5_9" />
            <feBlend mode="normal" in="SourceGraphic" in2="effect1_dropShadow_5_9" result="shape" />
        </filter>
    </defs>
</svg>