<svg
    xmlns="http://www.w3.org/2000/svg"
    version="1.1" x="0px" y="0px" viewBox="0 0 100 100"
    enable-background="new 0 0 100 100" xml:space="preserve">
        <path d="M47.7776222,63.7507324c-8.8391647,0-16.6082325-7.1503754-17.351635-15.9710083    c-1.1152382-13.2308998,8.7673454-23.9551487,22.0726662-23.9551487c13.3078957,0,24.9508476,10.7242489,26.0103264,23.9551487    c1.4098053,17.6411285-11.7547073,31.9421539-29.4091988,31.9421539c-17.6542492,0-33.1900177-14.3010254-34.70327-31.9421539    C12.5085545,25.7309322,28.9788494,7.8535652,51.1868782,7.8535652c22.2079964,0,41.6176796,17.877367,43.3487358,39.9261589    c0,24.3455124-19.7306671,44.0764771-44.0763435,44.0764771c-24.3428078,0-44.0763474-19.7309647-44.0763474-44.0764771    c1.906621,22.0515289,21.3266602,39.9290314,43.3780518,39.9290314s38.5110703-17.8775024,36.761322-39.9290314    c-1.3991623-17.6411324-16.9243088-31.9394188-34.6796684-31.9394188c-17.7525215,0-30.9302597,14.2982864-29.4302292,31.9394188    c1.1232834,13.230896,12.776886,23.9578857,26.0264206,23.9578857c13.249321,0,23.1241188-10.7269897,22.0565987-23.9578857    c-0.7115097-8.8204994-8.4753761-15.9710102-17.3410149-15.9710102c-8.8630371,0-15.4533272,7.1505108-14.7151031,15.9710102    c0.368969,4.4103699,4.2535019,7.9736519,8.6745186,7.9868736c5.1006432,0.0159302,8.6851654-4.0996323,7.3523598-7.9868736    c-1.1313019-3.3030434-6.75494-3.2897148-8.0135574,0c-0.2310295-5.1536636,2.9287682-7.9841385,7.3575363-7.9841385    c4.4290619,0,8.31073,3.5738754,8.6719437,7.9841385C63.1990623,56.6003571,56.6168175,63.7507324,47.7776222,63.7507324z"/>
</svg>